<?xml version="1.0" encoding="UTF-8"?>
<!DOCTYPE svg PUBLIC "-//W3C//DTD SVG 1.1//EN" "http://www.w3.org/Graphics/SVG/1.1/DTD/svg11.dtd">
<svg xmlns="http://www.w3.org/2000/svg" version="1.1" width="97px" height="80px" style="shape-rendering:geometricPrecision; text-rendering:geometricPrecision; image-rendering:optimizeQuality; fill-rule:evenodd; clip-rule:evenodd" xmlns:xlink="http://www.w3.org/1999/xlink">
<g><path style="opacity:0.984" fill="#ca3335" d="M 37.5,3.5 C 58.9162,0.785119 73.4162,9.45179 81,29.5C 85.2795,51.4445 77.1128,66.6112 56.5,75C 32.9806,79.3256 17.4806,70.159 10,47.5C 7.80049,25.5391 16.9672,10.8724 37.5,3.5 Z"/></g>
<g><path style="opacity:1" fill="#e49b9c" d="M 59.5,18.5 C 61.736,19.3891 63.736,20.7224 65.5,22.5C 66.1973,20.6155 67.1973,20.2822 68.5,21.5C 69.8415,19.9951 71.5082,19.3285 73.5,19.5C 74.5,19.8333 75.1667,20.5 75.5,21.5C 73.0675,23.1257 70.4009,24.459 67.5,25.5C 70.6679,29.9301 71.6679,34.5967 70.5,39.5C 69.728,30.955 66.0614,23.955 59.5,18.5 Z"/></g>
<g><path style="opacity:1" fill="#fbf6f7" d="M 28.5,9.5 C 31.0972,9.72083 31.0972,10.2208 28.5,11C 28.9662,12.2988 28.9662,13.7988 28.5,15.5C 29.8221,15.67 30.9887,15.3366 32,14.5C 32.6924,15.0253 33.1924,15.6919 33.5,16.5C 31.4788,17.8545 29.8121,19.5212 28.5,21.5C 27.5398,23.4607 26.2065,25.1274 24.5,26.5C 22.5905,27.9746 21.4238,29.9746 21,32.5C 20.501,36.8206 20.3343,41.1539 20.5,45.5C 20.8333,46.1667 21.1667,46.8333 21.5,47.5C 14.9034,48.3851 14.9034,49.5517 21.5,51C 28.5495,51.7598 35.5495,51.5931 42.5,50.5C 49.1906,46.9867 56.1906,44.32 63.5,42.5C 67.5138,42.6655 71.5138,42.4988 75.5,42C 74.0953,40.7308 72.4286,40.2308 70.5,40.5C 66.8333,40.5 63.1667,40.5 59.5,40.5C 58.8333,40.5 58.1667,40.5 57.5,40.5C 58.2778,39.8444 58.9444,39.0111 59.5,38C 58.8524,36.5603 58.5191,35.0603 58.5,33.5C 59.3382,33.1583 59.6716,32.4916 59.5,31.5C 60.247,34.1497 61.247,36.8164 62.5,39.5C 64.0255,39.0057 65.3588,38.339 66.5,37.5C 67.4674,38.8062 68.8007,39.4729 70.5,39.5C 71.6679,34.5967 70.6679,29.9301 67.5,25.5C 70.4009,24.459 73.0675,23.1257 75.5,21.5C 84.3812,40.2633 80.7146,56.0966 64.5,69C 48.3119,77.7115 33.4786,75.8782 20,63.5C 9.48629,48.9454 8.81962,33.9454 18,18.5C 21.0781,14.9155 24.5781,11.9155 28.5,9.5 Z"/></g>
<g><path style="opacity:1" fill="#e39091" d="M 46.5,55.5 C 48.4352,56.1495 50.4352,56.4828 52.5,56.5C 52.5,57.8333 52.5,59.1667 52.5,60.5C 48.332,60.1669 43.9987,60.1669 39.5,60.5C 39.5,59.1667 39.5,57.8333 39.5,56.5C 42.0593,56.8016 44.3926,56.4682 46.5,55.5 Z"/></g>
<g><path style="opacity:1" fill="#df898a" d="M 31.5,60.5 C 28.0246,59.1982 25.8579,56.8649 25,53.5C 27.3722,55.7032 29.5389,58.0365 31.5,60.5 Z"/></g>
<g><path style="opacity:1" fill="#ebb7b8" d="M 21.5,58.5 C 19.9217,57.9344 18.5884,56.9344 17.5,55.5C 21.3277,53.7477 22.6611,54.7477 21.5,58.5 Z"/></g>
<g><path style="opacity:1" fill="#2a53a7" d="M 41.5,47.5 C 42.404,48.209 42.7373,49.209 42.5,50.5C 35.5495,51.5931 28.5495,51.7598 21.5,51C 14.9034,49.5517 14.9034,48.3851 21.5,47.5C 23.5061,46.4892 25.5061,45.4892 27.5,44.5C 31.8381,46.9602 36.5048,47.9602 41.5,47.5 Z"/></g>
<g><path style="opacity:1" fill="#e09395" d="M 66.5,54.5 C 68.1046,50.9525 69.438,47.2858 70.5,43.5C 71.173,47.7627 69.8397,51.4293 66.5,54.5 Z"/></g>
<g><path style="opacity:1" fill="#2a7ec9" d="M 59.5,40.5 C 63.1667,40.5 66.8333,40.5 70.5,40.5C 68.1667,41.1667 65.8333,41.8333 63.5,42.5C 56.1906,44.32 49.1906,46.9867 42.5,50.5C 42.7373,49.209 42.404,48.209 41.5,47.5C 45.2508,46.0271 48.9175,44.3604 52.5,42.5C 55.1522,42.5905 57.4855,41.9238 59.5,40.5 Z"/></g>
<g><path style="opacity:1" fill="#94d4f3" d="M 70.5,40.5 C 72.4286,40.2308 74.0953,40.7308 75.5,42C 71.5138,42.4988 67.5138,42.6655 63.5,42.5C 65.8333,41.8333 68.1667,41.1667 70.5,40.5 Z"/></g>
<g><path style="opacity:1" fill="#ea3733" d="M 58.5,33.5 C 58.5191,35.0603 58.8524,36.5603 59.5,38C 58.9444,39.0111 58.2778,39.8444 57.5,40.5C 56.1779,40.33 55.0113,40.6634 54,41.5C 53.5091,36.09 54.0091,30.7567 55.5,25.5C 58.172,27.4255 59.172,30.0921 58.5,33.5 Z"/></g>
<g><path style="opacity:1" fill="#e29092" d="M 24.5,26.5 C 21.5806,32.4522 20.9139,38.6189 22.5,45C 21.9056,45.4643 21.2389,45.631 20.5,45.5C 20.3343,41.1539 20.501,36.8206 21,32.5C 21.4238,29.9746 22.5905,27.9746 24.5,26.5 Z"/></g>
<g><path style="opacity:1" fill="#e8a8a8" d="M 19.5,18.5 C 21.8863,19.3733 23.8863,20.8733 25.5,23C 22.549,25.0443 20.2156,24.3777 18.5,21C 19.2524,20.3292 19.5858,19.4959 19.5,18.5 Z"/></g>
<g><path style="opacity:1" fill="#e49fa0" d="M 28.5,9.5 C 29.209,8.59603 30.209,8.26269 31.5,8.5C 32.2071,10.7814 33.2071,12.9481 34.5,15C 39.7276,13.8662 45.061,13.5329 50.5,14C 54.0353,14.6633 57.0353,16.1633 59.5,18.5C 48.5173,13.7197 38.184,14.7197 28.5,21.5C 29.8121,19.5212 31.4788,17.8545 33.5,16.5C 33.1924,15.6919 32.6924,15.0253 32,14.5C 30.9887,15.3366 29.8221,15.67 28.5,15.5C 28.9662,13.7988 28.9662,12.2988 28.5,11C 31.0972,10.2208 31.0972,9.72083 28.5,9.5 Z"/></g>
<g><path style="opacity:1" fill="#fcf8f8" d="M 59.5,18.5 C 66.0614,23.955 69.728,30.955 70.5,39.5C 68.8007,39.4729 67.4674,38.8062 66.5,37.5C 65.9607,33.9577 63.9607,31.6244 60.5,30.5C 59.8933,30.6236 59.56,30.9569 59.5,31.5C 59.6716,32.4916 59.3382,33.1583 58.5,33.5C 59.172,30.0921 58.172,27.4255 55.5,25.5C 54.0091,30.7567 53.5091,36.09 54,41.5C 55.0113,40.6634 56.1779,40.33 57.5,40.5C 58.1667,40.5 58.8333,40.5 59.5,40.5C 57.4855,41.9238 55.1522,42.5905 52.5,42.5C 48.9175,44.3604 45.2508,46.0271 41.5,47.5C 36.5048,47.9602 31.8381,46.9602 27.5,44.5C 25.5061,45.4892 23.5061,46.4892 21.5,47.5C 21.1667,46.8333 20.8333,46.1667 20.5,45.5C 21.2389,45.631 21.9056,45.4643 22.5,45C 20.9139,38.6189 21.5806,32.4522 24.5,26.5C 26.2065,25.1274 27.5398,23.4607 28.5,21.5C 38.184,14.7197 48.5173,13.7197 59.5,18.5 Z"/></g>
<g><path style="opacity:1" fill="#ee3935" d="M 37.5,40.5 C 38.9187,41.4511 40.5853,41.7845 42.5,41.5C 42.5,42.8333 42.5,44.1667 42.5,45.5C 40.076,45.8076 37.7427,45.4742 35.5,44.5C 35.9943,42.9745 36.661,41.6412 37.5,40.5 Z"/></g>
<g><path style="opacity:1" fill="#ec382e" d="M 51.5,42.5 C 49.4496,42.9612 47.4496,43.6279 45.5,44.5C 44.2121,42.7015 44.2121,41.0348 45.5,39.5C 47.7224,39.822 49.5557,39.1554 51,37.5C 51.4935,39.1341 51.6602,40.8008 51.5,42.5 Z"/></g>
<g><path style="opacity:1" fill="#ee5e20" d="M 40.5,33.5 C 41.8333,33.5 43.1667,33.5 44.5,33.5C 43.9573,36.2184 43.2906,38.885 42.5,41.5C 40.5853,41.7845 38.9187,41.4511 37.5,40.5C 37.7073,37.7594 38.7073,35.4261 40.5,33.5 Z"/></g>
<g><path style="opacity:1" fill="#eb3c2e" d="M 36.5,32.5 C 37.2389,32.369 37.9056,32.5357 38.5,33C 36.4703,36.5891 35.137,40.4224 34.5,44.5C 32.1579,44.4959 30.1579,43.6625 28.5,42C 30.3638,38.0729 33.0305,34.9062 36.5,32.5 Z"/></g>
<g><path style="opacity:1" fill="#eb3134" d="M 59.5,31.5 C 59.56,30.9569 59.8933,30.6236 60.5,30.5C 63.9607,31.6244 65.9607,33.9577 66.5,37.5C 65.3588,38.339 64.0255,39.0057 62.5,39.5C 61.247,36.8164 60.247,34.1497 59.5,31.5 Z"/></g>
<g><path style="opacity:1" fill="#f06b2a" d="M 52.5,42.5 C 52.1667,42.5 51.8333,42.5 51.5,42.5C 51.6602,40.8008 51.4935,39.1341 51,37.5C 49.5557,39.1554 47.7224,39.822 45.5,39.5C 45.9405,34.6734 47.1072,30.0068 49,25.5C 49.6322,23.0353 51.1322,21.3686 53.5,20.5C 53.8333,21 54.1667,21.5 54.5,22C 52.7521,28.711 52.0854,35.5443 52.5,42.5 Z"/></g>
<g><path style="opacity:1" fill="#f9b620" d="M 44.5,33.5 C 43.1667,33.5 41.8333,33.5 40.5,33.5C 40.9429,30.3762 42.6095,28.0429 45.5,26.5C 46.2792,28.8848 45.9458,31.2181 44.5,33.5 Z"/></g>
<g><path style="opacity:1" fill="#fcf5f5" d="M 73.5,19.5 C 71.5082,19.3285 69.8415,19.9951 68.5,21.5C 67.1973,20.2822 66.1973,20.6155 65.5,22.5C 63.736,20.7224 61.736,19.3891 59.5,18.5C 57.0353,16.1633 54.0353,14.6633 50.5,14C 45.061,13.5329 39.7276,13.8662 34.5,15C 33.2071,12.9481 32.2071,10.7814 31.5,8.5C 44.5327,2.77616 56.8661,4.27616 68.5,13C 70.7655,14.7581 72.4322,16.9248 73.5,19.5 Z"/></g>
<g><path style="opacity:1" fill="#e4999a" d="M 60.5,10.5 C 62.9843,12.2916 62.4843,13.6249 59,14.5C 58.5,14.1667 58,13.8333 57.5,13.5C 58.9935,12.8589 59.9935,11.8589 60.5,10.5 Z"/></g>
<g><path style="opacity:1" fill="#e29596" d="M 45.5,7.5 C 46.9284,9.37726 46.4284,10.7106 44,11.5C 43.5,11.1667 43,10.8333 42.5,10.5C 43.9935,9.85892 44.9935,8.85892 45.5,7.5 Z"/></g>
<g><path style="opacity:1" fill="#eab5b6" d="M 64.5,61.5 C 66.3168,58.8502 68.3168,56.3502 70.5,54C 74.2703,54.4494 74.2703,55.116 70.5,56C 71.3081,56.3076 71.9747,56.8076 72.5,57.5C 71.4688,58.7003 70.6355,60.0337 70,61.5C 69.0329,62.2061 67.1995,62.2061 64.5,61.5 Z"/></g>
<g><path style="opacity:1" fill="#e29294" d="M 66.5,54.5 C 65.7974,56.7157 64.4641,58.549 62.5,60C 55.5949,64.9751 47.9282,66.6418 39.5,65C 36.3156,64.2458 33.6489,62.7458 31.5,60.5C 44.6351,66.9652 56.3018,64.9652 66.5,54.5 Z"/></g>
<g><path style="opacity:1" fill="#e8b6b7" d="M 64.5,61.5 C 64.7214,62.7348 65.3881,63.7348 66.5,64.5C 65.7261,65.7112 64.8928,65.7112 64,64.5C 61.4207,68.1242 58.0874,69.7909 54,69.5C 53.3856,67.6866 53.7189,67.3533 55,68.5C 58.1299,66.0757 61.2966,63.7424 64.5,61.5 Z"/></g>
<g><path style="opacity:1" fill="#ecbebf" d="M 21.5,58.5 C 22.8734,58.3433 24.2068,58.51 25.5,59C 28.0109,61.1793 30.1776,63.6793 32,66.5C 36.2663,66.1274 40.433,67.1274 44.5,69.5C 43.5617,70.5529 42.395,71.2196 41,71.5C 35.9715,70.0644 31.1381,68.2311 26.5,66C 23.8343,64.1674 22.1676,61.6674 21.5,58.5 Z"/></g>
</svg>
